<svg width="357" height="80" viewBox="0 0 357 80" fill="none" xmlns="http://www.w3.org/2000/svg">
<path fill-rule="evenodd" clip-rule="evenodd" d="M0 48.9605V0H13.9887V48.9605H0Z" fill="#3C3C3C"/>
<path fill-rule="evenodd" clip-rule="evenodd" d="M149.214 79.2684V20.982H163.203V79.2684H149.214Z" fill="#3C3C3C"/>
<path fill-rule="evenodd" clip-rule="evenodd" d="M272.784 48.9605V0H286.773V48.9605H272.784Z" fill="#3C3C3C"/>
<path fill-rule="evenodd" clip-rule="evenodd" d="M181.854 60.6168V20.982H195.843V60.6168C195.843 63.192 197.931 65.2797 200.506 65.2797H223.821V79.2684H200.506C190.205 79.2684 181.854 70.9178 181.854 60.6168Z" fill="#3C3C3C"/>
<path fill-rule="evenodd" clip-rule="evenodd" d="M29.1432 34.9708C20.7736 34.9708 13.9887 41.7557 13.9887 50.1252C13.9887 58.4948 20.7736 65.2797 29.1432 65.2797C37.5127 65.2797 44.2976 58.4948 44.2976 50.1252C44.2976 41.7557 37.5127 34.9708 29.1432 34.9708ZM0 50.1252C0 34.0299 13.0478 20.982 29.1432 20.982C45.2385 20.982 58.2864 34.0299 58.2864 50.1252C58.2864 66.2206 45.2385 79.2684 29.1432 79.2684C13.0478 79.2684 0 66.2206 0 50.1252Z" fill="#3C3C3C"/>
<path fill-rule="evenodd" clip-rule="evenodd" d="M258.793 34.9708C251.419 34.9708 244.805 41.3945 244.805 50.1252C244.805 58.8559 251.419 65.2797 258.793 65.2797C266.168 65.2797 272.782 58.8559 272.782 50.1252C272.782 41.3945 266.168 34.9708 258.793 34.9708ZM230.816 50.1252C230.816 34.391 242.99 20.982 258.793 20.982C274.596 20.982 286.771 34.391 286.771 50.1252C286.771 65.8594 274.596 79.2684 258.793 79.2684C242.99 79.2684 230.816 65.8594 230.816 50.1252Z" fill="#3C3C3C"/>
<path fill-rule="evenodd" clip-rule="evenodd" d="M327.571 34.9708C319.201 34.9708 312.416 41.7557 312.416 50.1252C312.416 58.4948 319.201 65.2797 327.571 65.2797C335.94 65.2797 342.725 58.4948 342.725 50.1252C342.725 41.7557 335.94 34.9708 327.571 34.9708ZM298.428 50.1252C298.428 34.0299 311.476 20.982 327.571 20.982C343.666 20.982 356.714 34.0299 356.714 50.1252C356.714 66.2206 343.666 79.2684 327.571 79.2684C311.476 79.2684 298.428 66.2206 298.428 50.1252Z" fill="#3C3C3C"/>
<path fill-rule="evenodd" clip-rule="evenodd" d="M69.9429 48.9219V20.982H83.9316V48.9219C83.9316 57.9667 91.249 65.2797 100.252 65.2797C109.255 65.2797 116.572 57.9667 116.572 48.9219V20.982H130.561V48.9219C130.561 65.6712 117.002 79.2684 100.252 79.2684C83.502 79.2684 69.9429 65.6712 69.9429 48.9219Z" fill="#3C3C3C"/>
</svg>
