<svg width="116" height="36" viewBox="0 0 116 36" fill="none" xmlns="http://www.w3.org/2000/svg">
<path fill-rule="evenodd" clip-rule="evenodd" d="M33.0655 23.3086V11.9254H36.3178V23.3086H33.0655Z" fill="#131313"/>
<path fill-rule="evenodd" clip-rule="evenodd" d="M67.7573 30.3553V16.8039H71.0096V30.3553H67.7573Z" fill="#131313"/>
<path fill-rule="evenodd" clip-rule="evenodd" d="M96.4863 23.3087V11.9256H99.7386V23.3087H96.4863Z" fill="#131313"/>
<path fill-rule="evenodd" clip-rule="evenodd" d="M75.3461 26.0189V16.8039H78.5984V26.0189C78.5984 26.6176 79.0838 27.103 79.6825 27.103H85.1031V30.3553H79.6825C77.2876 30.3553 75.3461 28.4139 75.3461 26.0189Z" fill="#131313"/>
<path fill-rule="evenodd" clip-rule="evenodd" d="M39.8414 20.0563C37.8955 20.0563 36.3181 21.6337 36.3181 23.5796C36.3181 25.5255 37.8955 27.103 39.8414 27.103C41.7873 27.103 43.3648 25.5255 43.3648 23.5796C43.3648 21.6337 41.7873 20.0563 39.8414 20.0563ZM33.0657 23.5796C33.0657 19.8375 36.0993 16.8039 39.8414 16.8039C43.5836 16.8039 46.6171 19.8375 46.6171 23.5796C46.6171 27.3218 43.5836 30.3553 39.8414 30.3553C36.0993 30.3553 33.0657 27.3218 33.0657 23.5796Z" fill="#131313"/>
<path fill-rule="evenodd" clip-rule="evenodd" d="M93.234 20.0563C91.5195 20.0563 89.9816 21.5498 89.9816 23.5796C89.9816 25.6095 91.5195 27.103 93.234 27.103C94.9485 27.103 96.4863 25.6095 96.4863 23.5796C96.4863 21.5498 94.9485 20.0563 93.234 20.0563ZM86.7293 23.5796C86.7293 19.9215 89.5598 16.8039 93.234 16.8039C96.9081 16.8039 99.7387 19.9215 99.7387 23.5796C99.7387 27.2378 96.9081 30.3553 93.234 30.3553C89.5598 30.3553 86.7293 27.2378 86.7293 23.5796Z" fill="#131313"/>
<path fill-rule="evenodd" clip-rule="evenodd" d="M109.224 20.0563C107.279 20.0563 105.701 21.6337 105.701 23.5796C105.701 25.5255 107.279 27.103 109.224 27.103C111.17 27.103 112.748 25.5255 112.748 23.5796C112.748 21.6337 111.17 20.0563 109.224 20.0563ZM102.449 23.5796C102.449 19.8375 105.482 16.8039 109.224 16.8039C112.967 16.8039 116 19.8375 116 23.5796C116 27.3218 112.967 30.3553 109.224 30.3553C105.482 30.3553 102.449 27.3218 102.449 23.5796Z" fill="#131313"/>
<path fill-rule="evenodd" clip-rule="evenodd" d="M49.3274 23.2999V16.8039H52.5797V23.2999C52.5797 25.4028 54.281 27.103 56.3741 27.103C58.4672 27.103 60.1685 25.4028 60.1685 23.2999V16.8039H63.4209V23.2999C63.4209 27.194 60.2684 30.3553 56.3741 30.3553C52.4799 30.3553 49.3274 27.194 49.3274 23.2999Z" fill="#131313"/>
<path fill-rule="evenodd" clip-rule="evenodd" d="M9.21504 11.925V0H14.6356V11.925H18.972H18.9721H24.3925V23.5792C24.3925 30.315 18.9321 35.7755 12.1963 35.7755C5.46045 35.7755 0 30.315 0 23.5792V11.925H5.42056V23.5792C5.42056 27.3213 8.45415 30.3549 12.1963 30.3549C15.9384 30.3549 18.972 27.3213 18.972 23.5792V23.3974L18.9697 23.3994C18.8744 19.7404 15.8784 16.8035 12.1964 16.8035C11.1266 16.8035 10.1147 17.0514 9.21504 17.4929V11.9252V11.925ZM12.1964 26.5605C10.5498 26.5605 9.21504 25.2257 9.21504 23.5792C9.21504 21.9327 10.5498 20.5979 12.1964 20.5979C13.8429 20.5979 15.1777 21.9327 15.1777 23.5792C15.1777 25.2257 13.8429 26.5605 12.1964 26.5605Z" fill="#FF0000"/>
</svg>
