<svg width="535" height="1024" viewBox="0 0 535 1024" fill="none" xmlns="http://www.w3.org/2000/svg">
<g clip-path="url(#clip0_2141_37779)">
<rect width="535" height="1032" transform="translate(0 -8)" fill="url(#paint0_linear_2141_37779)" fill-opacity="0.31"/>
<path fill-rule="evenodd" clip-rule="evenodd" d="M133.926 410.741L67.1777 410.741L67.1777 378.956L133.926 378.956L133.926 410.741ZM133.926 432.99L202.264 432.99C224.207 432.99 241.995 415.201 241.995 393.258C241.995 371.315 224.207 353.527 202.264 353.527L133.926 353.527L133.926 321.742L202.264 321.742C241.761 321.742 273.78 353.761 273.78 393.258C273.78 432.756 241.761 464.775 202.264 464.775L133.926 464.775L133.926 432.99ZM133.928 410.755L133.928 353.541L201.199 353.541L201.212 353.556C179.755 354.114 162.533 371.682 162.533 393.274C162.533 399.546 163.986 405.479 166.575 410.755L133.928 410.755ZM219.746 393.274C219.746 402.867 212.019 410.655 202.449 410.755L202.079 410.755C192.509 410.655 184.782 402.867 184.782 393.274C184.782 383.619 192.609 375.792 202.264 375.792C211.919 375.792 219.746 383.619 219.746 393.274Z" fill="url(#paint1_linear_2141_37779)" fill-opacity="0.05"/>
<path fill-rule="evenodd" clip-rule="evenodd" d="M133.926 187.777L67.1777 187.777L67.1777 155.992L133.926 155.992L133.926 187.777ZM133.926 210.025L202.264 210.025C224.207 210.025 241.995 192.237 241.995 170.294C241.995 148.351 224.207 130.563 202.264 130.563L133.926 130.563L133.926 98.7778L202.264 98.7778C241.761 98.7778 273.78 130.797 273.78 170.294C273.78 209.792 241.761 241.81 202.264 241.81L133.926 241.81L133.926 210.025ZM133.928 187.782L133.928 130.569L201.199 130.569L201.212 130.584C179.755 131.141 162.533 148.71 162.533 170.301C162.533 176.574 163.986 182.507 166.575 187.782L133.928 187.782ZM219.746 170.301C219.746 179.895 212.019 187.683 202.449 187.782L202.079 187.782C192.509 187.683 184.782 179.895 184.782 170.301C184.782 160.647 192.609 152.82 202.264 152.82C211.919 152.82 219.746 160.647 219.746 170.301Z" fill="url(#paint2_linear_2141_37779)" fill-opacity="0.05"/>
<path fill-rule="evenodd" clip-rule="evenodd" d="M133.926 522.523L67.1777 522.523L67.1777 490.738L133.926 490.738L133.926 522.523ZM133.926 544.772L202.264 544.772C224.207 544.772 241.995 526.984 241.995 505.041C241.995 483.098 224.207 465.309 202.264 465.309L201.202 465.309L201.212 465.32C179.756 465.878 162.533 483.446 162.533 505.038C162.533 511.31 163.987 517.244 166.575 522.519L133.928 522.519L133.928 465.309L133.926 465.309L133.926 433.524L202.264 433.524C241.761 433.524 273.78 465.543 273.78 505.041C273.78 544.538 241.761 576.557 202.264 576.557L133.926 576.557L133.926 544.772ZM219.746 505.038C219.746 514.639 212.006 522.433 202.425 522.519L202.104 522.519C192.523 522.433 184.782 514.639 184.782 505.038C184.782 495.383 192.609 487.556 202.264 487.556C211.919 487.556 219.746 495.383 219.746 505.038Z" fill="url(#paint3_linear_2141_37779)" fill-opacity="0.05"/>
<path fill-rule="evenodd" clip-rule="evenodd" d="M133.926 299.217L67.1777 299.217L67.1777 267.432L133.926 267.432L133.926 299.217ZM133.926 321.465L202.264 321.465C224.207 321.465 241.995 303.677 241.995 281.734C241.995 259.791 224.207 242.003 202.264 242.003L201.204 242.003L201.212 242.012C179.755 242.569 162.533 260.138 162.533 281.729C162.533 288.002 163.986 293.935 166.575 299.21L133.928 299.21L133.928 242.003L133.926 242.003L133.926 210.218L202.264 210.218C241.761 210.218 273.78 242.237 273.78 281.734C273.78 321.232 241.761 353.25 202.264 353.25L133.926 353.25L133.926 321.465ZM219.746 281.729C219.746 291.322 212.019 299.111 202.449 299.21L202.079 299.21C192.509 299.111 184.782 291.322 184.782 281.729C184.782 272.074 192.609 264.248 202.264 264.248C211.919 264.248 219.746 272.074 219.746 281.729Z" fill="url(#paint4_linear_2141_37779)" fill-opacity="0.05"/>
<path fill-rule="evenodd" clip-rule="evenodd" d="M133.926 633.963L67.1777 633.963L67.1777 602.178L133.926 602.178L133.926 633.963ZM133.926 656.212L202.264 656.212C224.207 656.212 241.995 638.424 241.995 616.481C241.995 594.538 224.207 576.749 202.264 576.749L201.2 576.749L201.212 576.762C179.755 577.32 162.533 594.889 162.533 616.48C162.533 622.753 163.986 628.686 166.575 633.961L133.928 633.961L133.928 576.749L133.926 576.749L133.926 544.964L202.264 544.964C241.761 544.964 273.78 576.983 273.78 616.481C273.78 655.978 241.761 687.997 202.264 687.997L133.926 687.997L133.926 656.212ZM219.746 616.48C219.746 626.073 212.019 633.862 202.449 633.961L202.079 633.961C192.509 633.862 184.782 626.073 184.782 616.48C184.782 606.825 192.609 598.998 202.264 598.998C211.919 598.998 219.746 606.825 219.746 616.48Z" fill="url(#paint5_linear_2141_37779)" fill-opacity="0.05"/>
<path fill-rule="evenodd" clip-rule="evenodd" d="M325.739 410.741L258.997 410.741L258.997 378.956L325.739 378.956L325.739 353.541L393.01 353.541L393.023 353.556C371.566 354.114 354.344 371.682 354.344 393.274C354.344 399.546 355.797 405.479 358.386 410.755L325.739 410.755L325.739 410.741ZM325.74 432.99L394.078 432.99C416.021 432.99 433.809 415.201 433.809 393.258C433.809 371.315 416.021 353.527 394.078 353.527L325.74 353.527L325.74 321.742L394.078 321.742C433.575 321.742 465.594 353.761 465.594 393.258C465.594 432.756 433.575 464.775 394.078 464.775L325.74 464.775L325.74 432.99ZM411.557 393.274C411.557 402.867 403.83 410.655 394.26 410.755L393.89 410.755C384.32 410.655 376.593 402.867 376.593 393.274C376.593 383.619 384.42 375.792 394.075 375.792C403.73 375.792 411.557 383.619 411.557 393.274Z" fill="url(#paint6_linear_2141_37779)" fill-opacity="0.05"/>
<path fill-rule="evenodd" clip-rule="evenodd" d="M-59.4328 75.9988L-126.177 75.9988L-126.177 44.2138L-59.4328 44.2138L-59.4328 18.789L7.83824 18.789L7.85168 18.8035C-13.6056 19.3606 -30.8288 36.9296 -30.8288 58.5212C-30.8288 64.7938 -29.3752 70.7269 -26.7866 76.002L-59.4328 76.002L-59.4328 75.9988ZM-59.43 98.2476L8.90779 98.2476C30.8508 98.2476 48.6391 80.4593 48.6391 58.5163C48.6391 36.5733 30.8508 18.785 8.90779 18.785L-59.43 18.785L-59.43 -13L8.90778 -13C48.4052 -13 80.4241 19.019 80.4241 58.5163C80.4241 98.0137 48.4052 130.033 8.90779 130.033L-59.43 130.033L-59.43 98.2476ZM26.3842 58.5212C26.3842 68.1144 18.6572 75.9028 9.08746 76.002L8.7175 76.002C-0.852213 75.9028 -8.5793 68.1144 -8.5793 58.5212C-8.5793 48.8663 -0.752438 41.0394 8.90248 41.0394C18.5574 41.0394 26.3842 48.8663 26.3842 58.5212Z" fill="url(#paint7_linear_2141_37779)" fill-opacity="0.05"/>
<path fill-rule="evenodd" clip-rule="evenodd" d="M-59.434 410.741L-126.177 410.741L-126.177 378.956L-59.434 378.956L-59.434 353.541L7.83702 353.541L7.85046 353.556C-13.6068 354.113 -30.83 371.682 -30.83 393.274C-30.83 399.546 -29.3765 405.479 -26.7878 410.755L-59.434 410.755L-59.434 410.741ZM-59.43 432.99L8.90779 432.99C30.8508 432.99 48.6391 415.201 48.6391 393.258C48.6391 371.315 30.8508 353.527 8.90779 353.527L-59.43 353.527L-59.43 321.742L8.90778 321.742C48.4052 321.742 80.4241 353.761 80.4241 393.258C80.4241 432.756 48.4052 464.775 8.90779 464.775L-59.43 464.775L-59.43 432.99ZM26.383 393.274C26.383 402.867 18.656 410.655 9.08624 410.755L8.71628 410.755C-0.853434 410.655 -8.58052 402.867 -8.58052 393.274C-8.58052 383.619 -0.753658 375.792 8.90126 375.792C18.5562 375.792 26.383 383.619 26.383 393.274Z" fill="url(#paint8_linear_2141_37779)" fill-opacity="0.05"/>
<path fill-rule="evenodd" clip-rule="evenodd" d="M325.746 522.523L258.997 522.523L258.997 490.738L325.739 490.738L325.739 465.305L325.74 465.305L325.74 433.524L394.078 433.524C433.575 433.524 465.594 465.543 465.594 505.041C465.594 544.538 433.575 576.557 394.078 576.557L325.74 576.557L325.74 544.772L394.078 544.772C416.021 544.772 433.809 526.984 433.809 505.041C433.809 483.098 416.021 465.309 394.078 465.309L393.013 465.309L393.023 465.32C371.566 465.878 354.344 483.446 354.344 505.038C354.344 511.31 355.797 517.243 358.386 522.518L325.746 522.518L325.746 522.523ZM411.557 505.038C411.557 514.631 403.83 522.419 394.26 522.518L393.89 522.518C384.32 522.419 376.593 514.631 376.593 505.038C376.593 495.383 384.42 487.556 394.075 487.556C403.73 487.556 411.557 495.383 411.557 505.038Z" fill="url(#paint9_linear_2141_37779)" fill-opacity="0.05"/>
<path fill-rule="evenodd" clip-rule="evenodd" d="M-59.434 187.777L-126.177 187.777L-126.177 155.992L-59.434 155.992L-59.434 130.569L7.83702 130.569L7.85046 130.584C-13.6068 131.141 -30.83 148.71 -30.83 170.301C-30.83 176.574 -29.3765 182.507 -26.7878 187.782L-59.434 187.782L-59.434 187.777ZM-59.43 210.025L8.90779 210.025C30.8508 210.025 48.6391 192.237 48.6391 170.294C48.6391 148.351 30.8508 130.563 8.90779 130.563L-59.43 130.563L-59.43 98.7778L8.90778 98.7778C48.4052 98.7778 80.4241 130.797 80.4241 170.294C80.4241 209.792 48.4052 241.81 8.90779 241.81L-59.43 241.81L-59.43 210.025ZM26.383 170.301C26.383 179.895 18.656 187.683 9.08624 187.782L8.71628 187.782C-0.853434 187.683 -8.58052 179.895 -8.58052 170.301C-8.58052 160.647 -0.753658 152.82 8.90126 152.82C18.5562 152.82 26.383 160.647 26.383 170.301Z" fill="url(#paint10_linear_2141_37779)" fill-opacity="0.05"/>
<path fill-rule="evenodd" clip-rule="evenodd" d="M-59.4287 522.523L-126.177 522.523L-126.177 490.738L-59.4343 490.738L-59.4343 465.306L-59.43 465.306L-59.43 433.524L8.90778 433.524C48.4052 433.524 80.4241 465.543 80.4241 505.041C80.4241 544.538 48.4052 576.557 8.90779 576.557L-59.43 576.557L-59.43 544.772L8.90779 544.772C30.8508 544.772 48.6391 526.984 48.6391 505.041C48.6391 483.098 30.8508 465.309 8.90779 465.309L7.84005 465.309L7.85002 465.32C-13.6071 465.877 -30.8302 483.446 -30.8302 505.038C-30.8302 511.31 -29.3765 517.244 -26.7878 522.519L-59.4287 522.519L-59.4287 522.523ZM26.3829 505.038C26.3829 514.639 18.6426 522.433 9.06149 522.519L8.74081 522.519C-0.840281 522.433 -8.58063 514.639 -8.58063 505.038C-8.58063 495.383 -0.753773 487.556 8.90115 487.556C18.5561 487.556 26.3829 495.383 26.3829 505.038Z" fill="url(#paint11_linear_2141_37779)" fill-opacity="0.05"/>
<path fill-rule="evenodd" clip-rule="evenodd" d="M325.746 299.217L258.997 299.217L258.997 267.432L325.739 267.432L325.739 241.997L325.74 241.997L325.74 210.218L394.078 210.218C433.575 210.218 465.594 242.237 465.594 281.734C465.594 321.232 433.575 353.25 394.078 353.25L325.74 353.25L325.74 321.465L394.078 321.465C416.021 321.465 433.809 303.677 433.809 281.734C433.809 259.791 416.021 242.003 394.078 242.003L393.015 242.003L393.023 242.012C371.566 242.569 354.344 260.138 354.344 281.729C354.344 288.002 355.797 293.935 358.386 299.21L325.746 299.21L325.746 299.217ZM411.557 281.729C411.557 291.322 403.83 299.111 394.26 299.21L393.89 299.21C384.32 299.111 376.593 291.322 376.593 281.729C376.593 272.074 384.42 264.248 394.075 264.248C403.73 264.248 411.557 272.074 411.557 281.729Z" fill="url(#paint12_linear_2141_37779)" fill-opacity="0.05"/>
<path fill-rule="evenodd" clip-rule="evenodd" d="M325.746 633.963L258.997 633.963L258.997 602.178L325.739 602.178L325.739 576.748L325.74 576.748L325.74 544.964L394.078 544.964C433.575 544.964 465.594 576.983 465.594 616.481C465.594 655.978 433.575 687.997 394.078 687.997L325.74 687.997L325.74 656.212L394.078 656.212C416.021 656.212 433.809 638.424 433.809 616.481C433.809 594.538 416.021 576.749 394.078 576.749L393.011 576.749L393.023 576.762C371.566 577.32 354.344 594.889 354.344 616.48C354.344 622.753 355.797 628.686 358.386 633.961L325.746 633.961L325.746 633.963ZM411.557 616.48C411.557 626.073 403.83 633.862 394.26 633.961L393.89 633.961C384.32 633.862 376.593 626.073 376.593 616.48C376.593 606.825 384.42 598.998 394.075 598.998C403.73 598.998 411.557 606.825 411.557 616.48Z" fill="url(#paint13_linear_2141_37779)" fill-opacity="0.05"/>
<path fill-rule="evenodd" clip-rule="evenodd" d="M-59.4287 299.217L-126.177 299.217L-126.177 267.432L-59.4304 267.432L-59.4304 241.997L-59.43 241.997L-59.43 210.218L8.90778 210.218C48.4052 210.218 80.4241 242.237 80.4241 281.734C80.4241 321.232 48.4052 353.25 8.90779 353.25L-59.43 353.25L-59.43 321.465L8.90779 321.465C30.8508 321.465 48.6391 303.677 48.6391 281.734C48.6391 259.791 30.8508 242.003 8.90779 242.003L7.84605 242.003L7.85417 242.012C-13.6026 242.569 -30.8253 260.138 -30.8253 281.729C-30.8253 288.002 -29.3717 293.935 -26.7831 299.21L-59.4287 299.21L-59.4287 299.217ZM26.3878 281.729C26.3878 291.322 18.6607 299.111 9.09097 299.21L8.72101 299.21C-0.848704 299.111 -8.57579 291.322 -8.57579 281.729C-8.57579 272.074 -0.748936 264.248 8.90599 264.248C18.5609 264.248 26.3878 272.074 26.3878 281.729Z" fill="url(#paint14_linear_2141_37779)" fill-opacity="0.05"/>
<path fill-rule="evenodd" clip-rule="evenodd" d="M-59.4287 633.963L-126.177 633.963L-126.177 602.178L-59.4304 602.178L-59.4304 576.748L-59.43 576.748L-59.43 544.964L8.90778 544.964C48.4052 544.964 80.4241 576.983 80.4241 616.481C80.4241 655.978 48.4052 687.997 8.90779 687.997L-59.43 687.997L-59.43 656.212L8.90779 656.212C30.8508 656.212 48.6391 638.424 48.6391 616.481C48.6391 594.538 30.8508 576.749 8.90779 576.749L7.84205 576.749L7.85414 576.762C-13.6032 577.32 -30.8264 594.888 -30.8264 616.48C-30.8264 622.753 -29.3728 628.686 -26.7841 633.961L-59.4287 633.961L-59.4287 633.963ZM26.3867 616.48C26.3867 626.073 18.6596 633.862 9.0899 633.961L8.71994 633.961C-0.849764 633.862 -8.57685 626.073 -8.57685 616.48C-8.57685 606.825 -0.749989 598.998 8.90492 598.998C18.5598 598.998 26.3867 606.825 26.3867 616.48Z" fill="url(#paint15_linear_2141_37779)" fill-opacity="0.05"/>
<path fill-rule="evenodd" clip-rule="evenodd" d="M240.152 447.664V315H300.454V447.664H240.152ZM197.943 447.672V577.322C197.943 618.951 231.691 652.699 273.321 652.699C314.95 652.699 348.698 618.951 348.698 577.322V447.672H409V577.322C409 652.255 348.254 713.001 273.321 713.001C198.387 713.001 137.641 652.255 137.641 577.322V447.672H197.943ZM240.152 447.672H348.696V575.298L348.67 575.322C347.61 534.616 314.28 501.944 273.319 501.944C261.418 501.944 250.161 504.702 240.152 509.614V447.672ZM273.319 610.488C255.001 610.488 240.152 595.639 240.152 577.322C240.152 559.004 255.001 544.156 273.319 544.156C291.636 544.156 306.485 559.004 306.485 577.322C306.485 595.639 291.636 610.488 273.319 610.488Z" fill="white"/>
</g>
<defs>
<linearGradient id="paint0_linear_2141_37779" x1="267.5" y1="0" x2="267.5" y2="1032" gradientUnits="userSpaceOnUse">
<stop stop-color="#676767"/>
<stop offset="1" stop-color="#D32F2F" stop-opacity="0"/>
</linearGradient>
<linearGradient id="paint1_linear_2141_37779" x1="67.1777" y1="393.258" x2="273.78" y2="393.258" gradientUnits="userSpaceOnUse">
<stop stop-color="#FF0000"/>
<stop offset="1" stop-color="#FF0000" stop-opacity="0.06"/>
</linearGradient>
<linearGradient id="paint2_linear_2141_37779" x1="67.1777" y1="170.294" x2="273.78" y2="170.294" gradientUnits="userSpaceOnUse">
<stop stop-color="#FF0000"/>
<stop offset="1" stop-color="#FF0000" stop-opacity="0.06"/>
</linearGradient>
<linearGradient id="paint3_linear_2141_37779" x1="67.1777" y1="505.041" x2="273.78" y2="505.041" gradientUnits="userSpaceOnUse">
<stop stop-color="#FF0000"/>
<stop offset="1" stop-color="#FF0000" stop-opacity="0.06"/>
</linearGradient>
<linearGradient id="paint4_linear_2141_37779" x1="67.1777" y1="281.734" x2="273.78" y2="281.734" gradientUnits="userSpaceOnUse">
<stop stop-color="#FF0000"/>
<stop offset="1" stop-color="#FF0000" stop-opacity="0.06"/>
</linearGradient>
<linearGradient id="paint5_linear_2141_37779" x1="67.1777" y1="616.481" x2="273.78" y2="616.481" gradientUnits="userSpaceOnUse">
<stop stop-color="#FF0000"/>
<stop offset="1" stop-color="#FF0000" stop-opacity="0.06"/>
</linearGradient>
<linearGradient id="paint6_linear_2141_37779" x1="258.997" y1="393.258" x2="465.594" y2="393.258" gradientUnits="userSpaceOnUse">
<stop stop-color="#FF0000"/>
<stop offset="1" stop-color="#FF0000" stop-opacity="0.06"/>
</linearGradient>
<linearGradient id="paint7_linear_2141_37779" x1="-126.177" y1="58.5163" x2="80.4241" y2="58.5163" gradientUnits="userSpaceOnUse">
<stop stop-color="#FF0000"/>
<stop offset="1" stop-color="#FF0000" stop-opacity="0.06"/>
</linearGradient>
<linearGradient id="paint8_linear_2141_37779" x1="-126.177" y1="393.258" x2="80.4241" y2="393.258" gradientUnits="userSpaceOnUse">
<stop stop-color="#FF0000"/>
<stop offset="1" stop-color="#FF0000" stop-opacity="0.06"/>
</linearGradient>
<linearGradient id="paint9_linear_2141_37779" x1="258.997" y1="505.041" x2="465.594" y2="505.041" gradientUnits="userSpaceOnUse">
<stop stop-color="#FF0000"/>
<stop offset="1" stop-color="#FF0000" stop-opacity="0.06"/>
</linearGradient>
<linearGradient id="paint10_linear_2141_37779" x1="-126.177" y1="170.294" x2="80.4241" y2="170.294" gradientUnits="userSpaceOnUse">
<stop stop-color="#FF0000"/>
<stop offset="1" stop-color="#FF0000" stop-opacity="0.06"/>
</linearGradient>
<linearGradient id="paint11_linear_2141_37779" x1="-126.177" y1="505.041" x2="80.4241" y2="505.041" gradientUnits="userSpaceOnUse">
<stop stop-color="#FF0000"/>
<stop offset="1" stop-color="#FF0000" stop-opacity="0.06"/>
</linearGradient>
<linearGradient id="paint12_linear_2141_37779" x1="258.997" y1="281.734" x2="465.594" y2="281.734" gradientUnits="userSpaceOnUse">
<stop stop-color="#FF0000"/>
<stop offset="1" stop-color="#FF0000" stop-opacity="0.06"/>
</linearGradient>
<linearGradient id="paint13_linear_2141_37779" x1="258.997" y1="616.481" x2="465.594" y2="616.481" gradientUnits="userSpaceOnUse">
<stop stop-color="#FF0000"/>
<stop offset="1" stop-color="#FF0000" stop-opacity="0.06"/>
</linearGradient>
<linearGradient id="paint14_linear_2141_37779" x1="-126.177" y1="281.734" x2="80.4241" y2="281.734" gradientUnits="userSpaceOnUse">
<stop stop-color="#FF0000"/>
<stop offset="1" stop-color="#FF0000" stop-opacity="0.06"/>
</linearGradient>
<linearGradient id="paint15_linear_2141_37779" x1="-126.177" y1="616.481" x2="80.4241" y2="616.481" gradientUnits="userSpaceOnUse">
<stop stop-color="#FF0000"/>
<stop offset="1" stop-color="#FF0000" stop-opacity="0.06"/>
</linearGradient>
<clipPath id="clip0_2141_37779">
<rect width="535" height="1032" fill="white" transform="translate(0 -8)"/>
</clipPath>
</defs>
</svg>
