<svg width="238" height="364" viewBox="0 0 238 364" fill="none" xmlns="http://www.w3.org/2000/svg">
<path fill-rule="evenodd" clip-rule="evenodd" d="M172.222 143.964L206.882 143.964L206.882 160.469L172.225 160.469L172.225 173.677L172.223 173.677L172.223 190.178L136.738 190.178C116.228 190.178 99.6019 173.552 99.6019 153.042C99.6019 132.533 116.228 115.906 136.738 115.906L172.223 115.906L172.223 132.411L136.738 132.411C125.344 132.411 116.107 141.648 116.107 153.042C116.107 164.436 125.344 173.673 136.738 173.673L137.29 173.673L137.286 173.669C148.429 173.38 157.373 164.257 157.373 153.045C157.373 149.788 156.618 146.707 155.274 143.968L172.222 143.968L172.222 143.964ZM127.664 153.045C127.664 148.079 131.652 144.044 136.599 143.968L136.883 143.968C141.831 144.044 145.819 148.079 145.819 153.045C145.819 158.058 141.755 162.123 136.741 162.123C131.728 162.123 127.664 158.058 127.664 153.045Z" fill="url(#paint0_linear_2141_37936)" fill-opacity="0.05"/>
<path fill-rule="evenodd" clip-rule="evenodd" d="M172.222 259.745L206.882 259.745L206.882 276.249L172.225 276.249L172.225 289.455L172.223 289.455L172.223 305.959L136.738 305.959C116.228 305.959 99.6019 289.332 99.6019 268.823C99.6019 248.313 116.228 231.687 136.738 231.687L172.223 231.687L172.223 248.192L136.738 248.192C125.344 248.192 116.107 257.428 116.107 268.823C116.107 280.217 125.344 289.454 136.738 289.454L137.293 289.454L137.286 289.447C148.429 289.158 157.373 280.035 157.373 268.823C157.373 265.566 156.618 262.485 155.274 259.746L172.222 259.746L172.222 259.745ZM127.664 268.823C127.664 263.857 131.651 259.822 136.599 259.746L136.884 259.746C141.831 259.822 145.819 263.857 145.819 268.823C145.819 273.836 141.755 277.9 136.741 277.9C131.728 277.9 127.664 273.836 127.664 268.823Z" fill="url(#paint1_linear_2141_37936)" fill-opacity="0.05"/>
<path fill-rule="evenodd" clip-rule="evenodd" d="M172.225 85.9203L206.882 85.9203L206.882 102.425L172.225 102.425L172.225 115.627L137.294 115.627L137.286 115.619C148.429 115.33 157.373 106.207 157.373 94.9946C157.373 91.7377 156.618 88.6571 155.274 85.9181L172.225 85.9181L172.225 85.9203ZM172.223 74.3674L136.738 74.3674C125.344 74.3674 116.107 83.6042 116.107 94.9984C116.107 106.393 125.344 115.629 136.738 115.629L172.223 115.629L172.223 132.134L136.738 132.134C116.228 132.134 99.6019 115.508 99.6019 94.9984C99.6019 74.4889 116.228 57.8626 136.738 57.8626L172.223 57.8626L172.223 74.3674ZM127.664 94.9946C127.664 90.0286 131.652 85.9939 136.599 85.9181L136.883 85.9181C141.831 85.9939 145.819 90.0286 145.819 94.9946C145.819 100.008 141.755 104.072 136.741 104.072C131.728 104.072 127.664 100.008 127.664 94.9946Z" fill="url(#paint2_linear_2141_37936)" fill-opacity="0.05"/>
<path fill-rule="evenodd" clip-rule="evenodd" d="M172.226 201.875L206.886 201.875L206.886 218.38L172.226 218.38L172.226 231.584L172.228 231.584L172.228 248.089L136.742 248.089C116.233 248.089 99.6063 231.463 99.6063 210.953C99.6063 190.443 116.233 173.817 136.742 173.817L172.228 173.817L172.228 190.322L136.742 190.322C125.348 190.322 116.111 199.559 116.111 210.953C116.111 222.347 125.348 231.584 136.742 231.584L137.291 231.584L137.287 231.58C148.43 231.291 157.374 222.168 157.374 210.956C157.374 207.699 156.619 204.619 155.275 201.88L172.226 201.88L172.226 201.875ZM127.665 210.956C127.665 205.99 131.653 201.955 136.601 201.88L136.885 201.88C141.833 201.955 145.82 205.99 145.82 210.956C145.82 215.97 141.756 220.034 136.743 220.034C131.729 220.034 127.665 215.97 127.665 210.956Z" fill="url(#paint3_linear_2141_37936)" fill-opacity="0.05"/>
<path fill-rule="evenodd" clip-rule="evenodd" d="M172.226 28.0569L206.886 28.0569L206.886 44.5617L172.226 44.5617L172.226 57.7632L137.295 57.7632L137.287 57.7551C148.43 57.4663 157.374 48.3432 157.374 37.1311C157.374 33.8742 156.619 30.7936 155.275 28.0545L172.226 28.0545L172.226 28.0569ZM172.228 16.504L136.742 16.504C125.348 16.504 116.111 25.7408 116.111 37.135C116.111 48.5292 125.348 57.7661 136.742 57.7661L172.228 57.7661L172.228 74.2709L136.742 74.2709C116.233 74.2709 99.6063 57.6446 99.6063 37.135C99.6063 16.6255 116.233 -0.000843196 136.742 -0.000842299L172.228 -0.000840748L172.228 16.504ZM127.665 37.1311C127.665 32.1651 131.653 28.1304 136.601 28.0545L136.885 28.0545C141.833 28.1304 145.82 32.1651 145.82 37.1311C145.82 42.1446 141.756 46.2088 136.743 46.2088C131.729 46.2088 127.665 42.1446 127.665 37.1311Z" fill="url(#paint4_linear_2141_37936)" fill-opacity="0.05"/>
<path fill-rule="evenodd" clip-rule="evenodd" d="M72.6201 143.964L107.28 143.964L107.28 160.469L72.6227 160.469L72.6227 173.677L72.6216 173.677L72.6216 190.178L37.1362 190.178C16.6266 190.178 0.000317915 173.552 0.000318811 153.042C0.000319708 132.533 16.6266 115.906 37.1362 115.906L72.6216 115.906L72.6216 132.411L37.1362 132.411C25.742 132.411 16.5051 141.648 16.5051 153.042C16.5051 164.436 25.742 173.673 37.1362 173.673L37.6878 173.673L37.6837 173.669C48.8262 173.38 57.7701 164.257 57.7701 153.045C57.7701 149.788 57.0154 146.707 55.6714 143.968L72.6201 143.968L72.6201 143.964ZM28.0614 153.045C28.0614 148.079 32.0491 144.044 36.9971 143.968L37.281 143.968C42.229 144.044 46.2167 148.079 46.2167 153.045C46.2167 158.058 42.1525 162.123 37.139 162.123C32.1256 162.123 28.0614 158.058 28.0614 153.045Z" fill="url(#paint5_linear_2141_37936)" fill-opacity="0.05"/>
<path fill-rule="evenodd" clip-rule="evenodd" d="M272.627 317.786L307.287 317.786L307.287 334.291L272.627 334.291L272.627 317.786ZM272.629 306.233L237.143 306.233C225.749 306.233 216.512 315.47 216.512 326.864C216.512 338.258 225.749 347.495 237.143 347.495L237.694 347.495L237.687 347.488C248.83 347.2 257.774 338.076 257.774 326.864C257.774 323.607 257.019 320.527 255.675 317.788L272.626 317.788L272.626 347.495L272.629 347.495L272.629 364L237.143 364C216.634 364 200.007 347.374 200.007 326.864C200.007 306.355 216.634 289.728 237.143 289.728L272.629 289.728L272.629 306.233ZM228.065 326.864C228.065 321.898 232.053 317.864 237.001 317.788L237.285 317.788C242.233 317.864 246.22 321.898 246.22 326.864C246.22 331.878 242.156 335.942 237.143 335.942C232.129 335.942 228.065 331.878 228.065 326.864Z" fill="url(#paint6_linear_2141_37936)" fill-opacity="0.05"/>
<path fill-rule="evenodd" clip-rule="evenodd" d="M272.627 143.964L307.287 143.964L307.287 160.469L272.627 160.469L272.627 143.964ZM272.629 132.411L237.143 132.411C225.749 132.411 216.512 141.648 216.512 153.042C216.512 164.436 225.749 173.673 237.143 173.673L237.692 173.673L237.687 173.669C248.83 173.38 257.774 164.257 257.774 153.045C257.774 149.788 257.019 146.707 255.675 143.968L272.626 143.968L272.626 173.673L272.629 173.673L272.629 190.178L237.143 190.178C216.634 190.178 200.007 173.552 200.007 153.042C200.007 132.533 216.634 115.906 237.143 115.906L272.629 115.906L272.629 132.411ZM228.065 153.045C228.065 148.079 232.053 144.044 237.001 143.968L237.285 143.968C242.233 144.044 246.22 148.079 246.22 153.045C246.22 158.058 242.156 162.123 237.143 162.123C232.129 162.123 228.065 158.058 228.065 153.045Z" fill="url(#paint7_linear_2141_37936)" fill-opacity="0.05"/>
<path fill-rule="evenodd" clip-rule="evenodd" d="M72.6227 85.9203L107.28 85.9203L107.28 102.425L72.6227 102.425L72.6227 115.627L37.6912 115.627L37.6837 115.619C48.8262 115.33 57.7701 106.207 57.7701 94.9947C57.7701 91.7378 57.0154 88.6571 55.6714 85.9181L72.6227 85.9181L72.6227 85.9203ZM72.6216 74.3674L37.1362 74.3674C25.742 74.3674 16.5051 83.6042 16.5051 94.9984C16.5051 106.393 25.742 115.629 37.1362 115.629L72.6216 115.629L72.6216 132.134L37.1362 132.134C16.6266 132.134 0.000317915 115.508 0.000318811 94.9984C0.000319708 74.4889 16.6266 57.8626 37.1362 57.8626L72.6216 57.8626L72.6216 74.3674ZM28.0614 94.9947C28.0614 90.0286 32.0491 85.994 36.9971 85.9181L37.281 85.9181C42.229 85.994 46.2167 90.0286 46.2167 94.9947C46.2167 100.008 42.1525 104.072 37.139 104.072C32.1256 104.072 28.0614 100.008 28.0614 94.9947Z" fill="url(#paint8_linear_2141_37936)" fill-opacity="0.05"/>
<path fill-rule="evenodd" clip-rule="evenodd" d="M272.627 259.745L307.287 259.745L307.287 276.249L272.627 276.249L272.627 259.745ZM272.629 248.192L237.143 248.192C225.749 248.192 216.512 257.428 216.512 268.823C216.512 280.217 225.749 289.454 237.143 289.454L237.694 289.454L237.687 289.447C248.83 289.158 257.774 280.035 257.774 268.823C257.774 265.566 257.019 262.485 255.675 259.746L272.626 259.746L272.626 289.454L272.629 289.454L272.629 305.959L237.143 305.959C216.634 305.959 200.007 289.332 200.007 268.823C200.007 248.313 216.634 231.687 237.143 231.687L272.629 231.687L272.629 248.192ZM228.065 268.823C228.065 263.857 232.053 259.822 237.001 259.746L237.285 259.746C242.233 259.822 246.22 263.857 246.22 268.823C246.22 273.836 242.156 277.9 237.143 277.9C232.129 277.9 228.065 273.836 228.065 268.823Z" fill="url(#paint9_linear_2141_37936)" fill-opacity="0.05"/>
<path fill-rule="evenodd" clip-rule="evenodd" d="M272.627 85.9205L307.288 85.9205L307.288 102.425L272.627 102.425L272.627 85.9205ZM272.629 74.3676L237.144 74.3676C225.749 74.3676 216.512 83.6044 216.512 94.9986C216.512 106.393 225.749 115.63 237.144 115.63L272.629 115.63L272.629 132.135L237.144 132.135C216.634 132.135 200.008 115.508 200.008 94.9986C200.008 74.4891 216.634 57.8628 237.144 57.8628L272.629 57.8628L272.629 74.3676ZM272.627 85.9183L272.627 115.627L237.695 115.627L237.688 115.619C248.83 115.33 257.774 106.207 257.774 94.9949C257.774 91.738 257.019 88.6573 255.675 85.9183L272.627 85.9183ZM228.065 94.9949C228.065 90.0288 232.053 85.9942 237.001 85.9183L237.285 85.9183C242.233 85.9942 246.221 90.0288 246.221 94.9949C246.221 100.008 242.156 104.073 237.143 104.073C232.13 104.073 228.065 100.008 228.065 94.9949Z" fill="url(#paint10_linear_2141_37936)" fill-opacity="0.05"/>
<path fill-rule="evenodd" clip-rule="evenodd" d="M72.6227 28.0569L107.28 28.0569L107.28 44.5617L72.6227 44.5617L72.6227 57.7632L37.6912 57.7632L37.6837 57.7551C48.8262 57.4663 57.7701 48.3432 57.7701 37.1311C57.7701 33.8742 57.0154 30.7936 55.6714 28.0545L72.6227 28.0545L72.6227 28.0569ZM72.6216 16.504L37.1362 16.504C25.742 16.504 16.5051 25.7408 16.5051 37.135C16.5051 48.5292 25.742 57.766 37.1362 57.766L72.6216 57.7661L72.6216 74.2709L37.1362 74.2709C16.6266 74.2709 0.000317915 57.6446 0.000318811 37.135C0.000319708 16.6254 16.6266 -0.000858455 37.1362 -0.000857558L72.6216 -0.000856007L72.6216 16.504ZM28.0614 37.1311C28.0614 32.1651 32.0491 28.1304 36.9971 28.0545L37.281 28.0545C42.229 28.1304 46.2167 32.1651 46.2167 37.1311C46.2167 42.1445 42.1525 46.2087 37.139 46.2087C32.1256 46.2087 28.0614 42.1445 28.0614 37.1311Z" fill="url(#paint11_linear_2141_37936)" fill-opacity="0.05"/>
<path fill-rule="evenodd" clip-rule="evenodd" d="M272.627 201.875L307.287 201.875L307.287 218.38L272.627 218.38L272.627 201.875ZM272.629 190.322L237.143 190.322C225.749 190.322 216.512 199.559 216.512 210.953C216.512 222.347 225.749 231.584 237.143 231.584L237.691 231.584L237.687 231.58C248.83 231.291 257.774 222.168 257.774 210.956C257.774 207.699 257.019 204.619 255.675 201.88L272.626 201.88L272.626 231.584L272.629 231.584L272.629 248.089L237.143 248.089C216.634 248.089 200.007 231.463 200.007 210.953C200.007 190.443 216.634 173.817 237.143 173.817L272.629 173.817L272.629 190.322ZM228.065 210.956C228.065 205.99 232.053 201.955 237.001 201.88L237.285 201.88C242.233 201.955 246.22 205.99 246.22 210.956C246.22 215.97 242.156 220.034 237.143 220.034C232.129 220.034 228.065 215.97 228.065 210.956Z" fill="url(#paint12_linear_2141_37936)" fill-opacity="0.05"/>
<path fill-rule="evenodd" clip-rule="evenodd" d="M272.627 28.0569L307.287 28.0569L307.287 44.5617L272.627 44.5617L272.627 28.0569ZM272.629 16.504L237.143 16.504C225.749 16.504 216.512 25.7408 216.512 37.135C216.512 48.5292 225.749 57.7661 237.143 57.7661L272.629 57.7661L272.629 74.2709L237.143 74.2709C216.634 74.2709 200.007 57.6446 200.007 37.135C200.007 16.6255 216.634 -0.000843196 237.143 -0.000842299L272.629 -0.000840748L272.629 16.504ZM272.626 28.0545L272.626 57.7632L237.695 57.7632L237.687 57.7551C248.83 57.4663 257.774 48.3432 257.774 37.1311C257.774 33.8742 257.019 30.7936 255.675 28.0545L272.626 28.0545ZM228.065 37.1311C228.065 32.1651 232.053 28.1304 237.001 28.0545L237.285 28.0545C242.233 28.1304 246.22 32.1651 246.22 37.1311C246.22 42.1446 242.156 46.2088 237.143 46.2088C232.129 46.2088 228.065 42.1446 228.065 37.1311Z" fill="url(#paint13_linear_2141_37936)" fill-opacity="0.05"/>
<defs>
<linearGradient id="paint0_linear_2141_37936" x1="206.882" y1="153.042" x2="99.6019" y2="153.042" gradientUnits="userSpaceOnUse">
<stop/>
<stop offset="1" stop-opacity="0.06"/>
</linearGradient>
<linearGradient id="paint1_linear_2141_37936" x1="206.882" y1="268.823" x2="99.6019" y2="268.823" gradientUnits="userSpaceOnUse">
<stop/>
<stop offset="1" stop-opacity="0.06"/>
</linearGradient>
<linearGradient id="paint2_linear_2141_37936" x1="206.882" y1="94.9984" x2="99.6019" y2="94.9984" gradientUnits="userSpaceOnUse">
<stop/>
<stop offset="1" stop-opacity="0.06"/>
</linearGradient>
<linearGradient id="paint3_linear_2141_37936" x1="206.886" y1="210.953" x2="99.6063" y2="210.953" gradientUnits="userSpaceOnUse">
<stop/>
<stop offset="1" stop-opacity="0.06"/>
</linearGradient>
<linearGradient id="paint4_linear_2141_37936" x1="206.886" y1="37.135" x2="99.6063" y2="37.135" gradientUnits="userSpaceOnUse">
<stop/>
<stop offset="1" stop-opacity="0.06"/>
</linearGradient>
<linearGradient id="paint5_linear_2141_37936" x1="107.28" y1="153.042" x2="0.000318811" y2="153.042" gradientUnits="userSpaceOnUse">
<stop/>
<stop offset="1" stop-opacity="0.06"/>
</linearGradient>
<linearGradient id="paint6_linear_2141_37936" x1="307.287" y1="326.864" x2="200.007" y2="326.864" gradientUnits="userSpaceOnUse">
<stop/>
<stop offset="1" stop-opacity="0.06"/>
</linearGradient>
<linearGradient id="paint7_linear_2141_37936" x1="307.287" y1="153.042" x2="200.007" y2="153.042" gradientUnits="userSpaceOnUse">
<stop/>
<stop offset="1" stop-opacity="0.06"/>
</linearGradient>
<linearGradient id="paint8_linear_2141_37936" x1="107.28" y1="94.9984" x2="0.000318811" y2="94.9984" gradientUnits="userSpaceOnUse">
<stop/>
<stop offset="1" stop-opacity="0.06"/>
</linearGradient>
<linearGradient id="paint9_linear_2141_37936" x1="307.287" y1="268.823" x2="200.007" y2="268.823" gradientUnits="userSpaceOnUse">
<stop/>
<stop offset="1" stop-opacity="0.06"/>
</linearGradient>
<linearGradient id="paint10_linear_2141_37936" x1="307.288" y1="94.9986" x2="200.008" y2="94.9986" gradientUnits="userSpaceOnUse">
<stop/>
<stop offset="1" stop-opacity="0.06"/>
</linearGradient>
<linearGradient id="paint11_linear_2141_37936" x1="107.28" y1="37.135" x2="0.000318811" y2="37.135" gradientUnits="userSpaceOnUse">
<stop/>
<stop offset="1" stop-opacity="0.06"/>
</linearGradient>
<linearGradient id="paint12_linear_2141_37936" x1="307.287" y1="210.953" x2="200.007" y2="210.953" gradientUnits="userSpaceOnUse">
<stop/>
<stop offset="1" stop-opacity="0.06"/>
</linearGradient>
<linearGradient id="paint13_linear_2141_37936" x1="307.287" y1="37.135" x2="200.007" y2="37.135" gradientUnits="userSpaceOnUse">
<stop/>
<stop offset="1" stop-opacity="0.06"/>
</linearGradient>
</defs>
</svg>
